<svg xmlns="http://www.w3.org/2000/svg" viewBox="0 0 121 121"><defs><style>.cls-1,.cls-4{fill:none;}.cls-1,.cls-3,.cls-4{stroke:#204ecf;}.cls-1,.cls-3{stroke-linejoin:round;}.cls-2{fill:#e4e8f8;}.cls-3{fill:#fff;}.cls-4{stroke-miterlimit:10;}</style></defs><title>Asset 363</title><g id="Layer_2" data-name="Layer 2"><g id="Stuff"><path class="cls-1" d="M71.79,25S30.71,35.27,50.33,57.88h0c5.79,6.66-1.52,12.66-1.52,12.66S63.51,63,56.76,53.45C50.45,44.59,45.62,40.19,71.79,25Z"/><path class="cls-1" d="M44.93,32.15C69.21,13,56.78.52,56.76.5c5,19.81-17.74,25.79-25.95,38.13-5.6,8.41,2.74,17.44,14.11,27.7C40.49,56.31,25.45,47.54,44.93,32.15Z"/><path class="cls-2" d="M60.91,83.25C47,85.92,39,85.83,28.84,84.78,21,84,26.13,80.17,26.13,80.16c-20.32,6.75,11.31,14.4,39.71,6.1A14.35,14.35,0,0,1,60.91,83.25Z"/><path class="cls-2" d="M29,93.3C10.55,98.46,40.23,109.11,63.72,99a42.93,42.93,0,0,1-6.61-3.22c-10.47,2-15.33,2.14-24.84,1.05C24.42,96,29,93.3,29,93.3Z"/><path class="cls-2" d="M64.94,73.86a38.75,38.75,0,0,1,5.48-2.94s-9.06,1.62-18.09,2.38c-11,.93-22.9,1.11-28.84.31-14.09-1.88,7.72-7.06,7.72-7.06h0S22.74,66,12.32,71C0,77,42.79,79.68,64.94,73.86Z"/><path class="cls-2" d="M70.33,88.42a1.89,1.89,0,0,1-.45.59c30.07-7.9,19-27.86,4.64-22.81a4.1,4.1,0,0,0-1.92,1.49,15.81,15.81,0,0,1,2.57-.7C82.44,65.48,92.85,76.72,70.33,88.42Z"/><path class="cls-2" d="M81.4,103s3.39,2.8-3.74,5c-13.56,4.11-56.43,5.35-68.34.16-4.28-1.86,3.74-4.44,6.27-5a16.17,16.17,0,0,1,4.14-.46C15,99.33-11,109.28,6.52,112.12,54.41,119.89,93.82,108.62,81.4,103Z"/><path class="cls-2" d="M71.14,116.08c-18.44,3.48-41.19,3.07-54.68.85,0,0,2.76,2.28,17,3.19h0c21.61,1.39,54.8-.76,55.58-11C89,109.13,87.49,113,71.14,116.08Z"/><path class="cls-1" d="M60.91,83.25C47,85.92,39,85.83,28.84,84.78,21,84,26.13,80.17,26.13,80.16c-20.32,6.75,11.31,14.4,39.71,6.1A14.35,14.35,0,0,1,60.91,83.25Z"/><path class="cls-1" d="M29,93.3C10.55,98.46,40.23,109.11,63.72,99a42.93,42.93,0,0,1-6.61-3.22c-10.47,2-15.33,2.14-24.84,1.05C24.42,96,29,93.3,29,93.3Z"/><path class="cls-1" d="M64.94,73.86a38.75,38.75,0,0,1,5.48-2.94s-9.06,1.62-18.09,2.38c-11,.93-22.9,1.11-28.84.31-14.09-1.88,7.72-7.06,7.72-7.06h0S22.74,66,12.32,71C0,77,42.79,79.68,64.94,73.86Z"/><path class="cls-1" d="M70.33,88.42a1.89,1.89,0,0,1-.45.59c30.07-7.9,19-27.86,4.64-22.81a4.1,4.1,0,0,0-1.92,1.49,15.81,15.81,0,0,1,2.57-.7C82.44,65.48,92.85,76.72,70.33,88.42Z"/><path class="cls-1" d="M81.4,103s3.39,2.8-3.74,5c-13.56,4.11-56.43,5.35-68.34.16-4.28-1.86,3.74-4.44,6.27-5a16.17,16.17,0,0,1,4.14-.46C15,99.33-11,109.28,6.52,112.12,54.41,119.89,93.82,108.62,81.4,103Z"/><path class="cls-1" d="M71.14,116.08c-18.44,3.48-41.19,3.07-54.68.85,0,0,2.76,2.28,17,3.19h0c21.61,1.39,54.8-.76,55.58-11C89,109.13,87.49,113,71.14,116.08Z"/><circle class="cls-3" cx="92.11" cy="28.89" r="28.39"/><polyline class="cls-4" points="84.2 34.81 78.28 28.89 84.2 22.98"/><polyline class="cls-4" points="100.02 34.81 105.94 28.89 100.02 22.98"/><line class="cls-4" x1="88.2" y1="40.09" x2="96.02" y2="17.69"/></g></g></svg>